<svg version="1" xmlns="http://www.w3.org/2000/svg" width="682.667" height="682.667" viewBox="0 0 512.000000 512.000000"><path d="M116.5 1.6C87.8 6.6 61.7 20.2 41 41 24.5 57.4 14.2 74.1 7 95.9c-7.3 22-7 15.4-7 160.1s-.3 138.1 7 160.1c7.2 21.8 17.5 38.5 34 54.9 16.4 16.5 33.1 26.8 54.9 34 22 7.3 15.4 7 160.1 7s138.1.3 160.1-7c21.8-7.2 38.5-17.5 54.9-34 16.5-16.4 26.8-33.1 34-54.9 7.3-22 7-15.4 7-160.1s.3-138.1-7-160.1c-7.2-21.8-17.5-38.5-34-54.9-16.4-16.5-33.1-26.8-54.9-34C394-.3 400.8 0 255.1.1c-107.2.1-132 .3-138.6 1.5zm317 165c18.2 27.3 33.8 50.9 34.8 52.4l1.7 2.7-106.1 113.4c-58.3 62.4-106.4 113.5-106.8 113.7-.6.2-209.9-219.7-212.5-223.3-.6-.8 10.1-17.6 35.3-54.9l36.2-53.6h142.2l142.2.1 33 49.5z"/><path d="M136 127.7c.1 2.2 32.8 74.8 33.7 74.8 1.1 0 71.4-72.8 72.1-74.6.2-.5-23.4-.9-52.7-.9-29.2 0-53.1.3-53.1.7zM278.2 128c.4 1.2 69 73 69.7 73 .6 0 30.9-68.5 31.8-71.9l.5-2.1H329c-32 0-51 .4-50.8 1zM224 170.3l-34.5 36.2 35.3.3c19.3.1 51 .1 70.2 0l35.1-.3-34.7-36.3c-19-19.9-35.1-36.2-35.8-36.1-.6.1-16.6 16.4-35.6 36.2zM394.9 143.6c-1.2 2.7-8 17.9-15 33.9l-12.8 29 37.1.3c20.4.1 37.3 0 37.5-.2.3-.2-9.7-15.6-22.1-34.2l-22.5-33.8-2.2 5zM97.1 174l-22.2 33h37.2c34.9 0 37.1-.1 36.5-1.8-2.3-6-28.2-64.2-28.7-64.2-.3 0-10.5 14.8-22.8 33zM69.2 227.9c.4 1.2 168.8 178.5 170 178.9 1.2.5 2.8 4.2-40.7-91.6l-40-88.1-44.8-.1c-27.6 0-44.7.4-44.5.9zM180.4 228.7c2.2 6 77.2 176.2 77.7 176.3.3 0 17.2-37.7 37.4-83.8 20.3-46 37.9-86.1 39.2-89l2.3-5.2h-78.6c-74.4 0-78.6.1-78 1.7zM356.2 231.2c-1.1 2.4-19.3 42.7-40.6 89.6-21.3 47-38.6 85.6-38.3 85.8.4.5 163.9-177.2 164.5-178.7.2-.5-18.5-.9-41.7-.9h-42l-1.9 4.2z"/></svg>