<svg version="1" xmlns="http://www.w3.org/2000/svg" width="1365.333" height="1365.333" viewBox="0 0 1024.000000 1024.000000"><path d="M255.8 288.2c-3.4 5.1-32.9 48.8-65.5 97.1-32.6 48.2-59.3 88.5-59.3 89.5 0 1.6 374.5 397.8 379 401 1.1.8 2.5 1 3.4.5 3.2-1.8 379.6-404.9 379.6-406.6 0-1.8-123.1-187.4-125.8-189.5-1.3-.9-53.5-1.2-253.4-1.2H262.1l-6.3 9.2zm213.1 26.5c-15.8 17-109.2 114.3-109.5 114.1-.6-.7-52.4-119-52.4-119.8 0-.6 30.3-1 84.1-1h84.1l-6.3 6.7zm253.1-6c0 1.5-50.5 115.3-51.1 115.3-.8 0-110.9-114.6-110.9-115.5 0-.3 36.5-.5 81-.5 44.6 0 81 .3 81 .7zm-148 71.5c30.5 32 55.7 58.5 55.8 58.9.2.5-50.3.9-112.3.9-73.8 0-112.6-.3-112.3-1 .6-1.8 111.2-117 112.3-116.9.5 0 26 26.2 56.5 58.1zm220.5 5.9c18.7 28.1 34.1 51.7 34.3 52.5.3 1.2-8.5 1.4-57.3 1.4-54.5 0-57.7-.1-57.3-1.8.9-3.3 45.1-103.2 45.7-103.2.3 0 15.9 23 34.6 51.1zM315 439.2c0 .5-25.6.8-57 .8-31.3 0-57-.2-57-.5 0-.5 41.9-62.7 60.8-90.3l8.4-12.4 22.4 50.9c12.3 27.9 22.4 51.1 22.4 51.5zm85.7 189.2c35.9 79.1 65.2 144 65.1 144.1-.4.3-273.2-286.6-273.6-287.7-.2-.4 31.9-.7 71.4-.6l71.7.3 65.4 143.9zm244.1-143.5c-.1.4-29.5 67.2-65.3 148.5-57.9 131.5-65.1 147.4-66.1 145.4C511.8 775.6 384 485 384 484.5c0-.3 58.8-.5 130.6-.5s130.4.4 130.2.9zm144.5 41.3c-21.4 23.3-79.5 86.6-129.2 140.8-94.7 103.3-97.9 106.7-96.3 103.5L628 629c34.8-76.7 63.9-140.7 64.6-142.3l1.5-2.7h134l-38.8 42.2z"/></svg>