<svg version="1" xmlns="http://www.w3.org/2000/svg" width="1365.333" height="1365.333" viewBox="0 0 1024.000000 1024.000000"><path d="M204.3 229c-14.3 21.1-29.4 43.4-84.1 124.5-7.5 11-18.1 26.7-23.7 35C66.8 432.2 53 453.1 53 454.1c0 .9 3 4.3 15.5 17.4 1.7 1.8 9.5 10.1 17.5 18.5 18.2 19.3 31.3 33.1 36.5 38.5 2.2 2.3 10.3 10.8 18 19 7.7 8.1 15.6 16.5 17.5 18.5 1.9 2 10.3 10.8 18.5 19.5 8.3 8.7 17.3 18.1 20 21 2.8 2.9 8.3 8.8 12.4 13.1 6.9 7.4 30.5 32.2 48.7 51.4 4.5 4.7 9.8 10.3 11.9 12.5 2 2.2 10.1 10.7 17.9 18.9 16 16.8 16.7 17.6 36.6 38.6 8 8.4 16.3 17.2 18.5 19.5 4.5 4.8 27.9 29.5 34 36 5 5.2 34.5 36.3 44.2 46.5 3.9 4.1 8.9 9.3 11 11.6 2.1 2.2 10.2 10.8 18 19 7.7 8.2 16.5 17.4 19.3 20.4 4.5 4.8 26.2 27.6 37.2 39.1 4.6 5 7.3 5 11.5.2 1.8-2 5.9-6.4 9.1-9.7 3.1-3.4 11.8-12.6 19.2-20.6 7.4-7.9 14.4-15.4 15.5-16.5 3-3.2 25.5-27.2 29.5-31.5 1.9-2.1 8.5-9.1 14.6-15.6 6.1-6.6 12.6-13.5 14.4-15.4 1.8-1.9 8.3-8.9 14.5-15.5 6.2-6.6 12.7-13.6 14.5-15.5 1.8-1.9 8.5-9.1 15-16s13-13.9 14.5-15.5c1.5-1.7 8.2-8.9 14.9-16 6.8-7.2 13.4-14.2 14.7-15.6 1.3-1.5 7.6-8.2 13.9-14.9 6.3-6.7 12.6-13.4 13.9-14.9 1.3-1.4 8.3-8.9 15.5-16.5 15.6-16.7 26.4-28.1 29.1-31.1 7.9-8.4 16.9-18 28.8-30.6 7.5-8 14.5-15.5 15.5-16.7 1-1.1 7.6-8.2 14.8-15.8 7.1-7.5 13.6-14.5 14.4-15.4.8-.9 6.9-7.5 13.5-14.5 13.6-14.4 14.2-15.1 30.9-32.9 6.7-7.2 15.1-16.2 18.7-20 3.7-3.9 8.2-8.7 10-10.7 6.8-7.3 38.8-41.5 41.6-44.4 2-2.1 2-6.6 0-8.7-1.6-1.6-11.7-16.7-11.7-17.4 0-.3-.5-1-1.1-1.7-.6-.7-12.3-18.1-26-38.7s-25.5-38.4-26.3-39.5c-3.3-4.6-18.4-27.4-19-28.7-.4-.7-15.2-22.9-32.9-49.3l-32.2-48-304.2-.3-304.2-.2-6.8 10zM467 254c0 .5-5.2 6-33.6 35.5-10 10.4-19.9 20.8-21.9 23-2.1 2.2-8.5 9-14.4 15-5.8 6.1-19 19.8-29.2 30.5-10.3 10.7-23.4 24.4-29.1 30.3l-10.3 10.9-7.4-16.9c-4.1-9.2-8.2-18.6-9.1-20.8-6.1-13.8-14.5-32.6-16-36-.9-2.2-5.7-13-10.5-24s-9.6-21.8-10.6-24c-4.8-10.8-9.9-22.7-9.9-23.3 0-.4 45.5-.7 101-.7 55.6 0 101 .2 101 .5zm297.4 1.5c-.4 1-3.6 8.5-7.1 16.5-3.6 8-12.1 27.3-19 43-19 43.2-23.3 53.1-25.5 58-1.1 2.5-3.1 7-4.4 10-1.4 3-3 6.8-3.7 8.3l-1.2 2.8-17-17.6c-9.3-9.7-19-19.8-21.5-22.5-2.5-2.6-12.8-13.4-23-24s-19.8-20.6-21.4-22.4c-1.6-1.7-11.4-11.9-21.7-22.6-10.3-10.7-21.2-22.1-24.2-25.2-3-3.1-5.3-5.8-5.2-6 .2-.2 44.2-.3 97.9-.3 96.5 0 97.6 0 97 2zm-214 46.9c9.9 10.4 20.1 21 22.6 23.6 2.5 2.6 12.7 13.2 22.6 23.6 10 10.4 19.5 20.4 21.2 22.2 1.7 1.8 10.5 11.1 19.7 20.6 9.2 9.6 16.7 17.8 16.6 18.3-.1.9-270.1 1.2-270.1.2 0-.6 5-5.9 31.5-33.5 9.9-10.3 23.4-24.4 30-31.3 6.6-6.8 16.8-17.5 22.6-23.5 5.9-6.1 12.6-13.2 15-15.7 2.4-2.6 11.6-12.2 20.3-21.3l16-16.7 6.9 7.3c3.8 4 15.1 15.8 25.1 26.2zm302 45.5c22.9 34.3 41.4 62.6 41.2 63-.8 1.2-139.1.6-138.9-.6.1-.6 1.4-3.7 2.9-6.9 1.5-3.3 4.1-9.3 5.9-13.4 1.8-4.1 4.2-9.5 5.3-12 1.1-2.5 5.5-12.4 9.7-22 4.2-9.6 8.5-19.3 9.5-21.5 1-2.2 5.7-13 10.5-24 9.4-21.6 11.5-25.9 12-25.3.1.1 19 28.4 41.9 62.7zm-627.8-52.2c2 4.3 4.1 9.1 4.9 10.8.7 1.6 2.4 5.5 3.8 8.5 1.3 3 3.9 8.9 5.7 13 1.8 4.1 3.8 8.8 4.6 10.5.7 1.6 6.5 14.9 12.9 29.5s12.5 28.3 13.5 30.5c2.7 6.1 5 11.7 5 12.4 0 .3-30.7.6-68.2.6-56.8-.1-68.2-.3-68-1.4.2-.8 7.4-11.8 16-24.5 16.7-24.7 44.1-65.3 57.5-85.3 4.5-6.7 8.3-12.3 8.5-12.3.2 0 1.9 3.5 3.8 7.7zM672 465.4c0 .4-3.2 7.8-6.7 15.6-1.4 3-4 8.9-5.8 13-1.8 4.1-4.1 9.5-5.2 12-1.2 2.5-4.3 9.7-7.1 16-6.8 15.8-25.3 57.7-30.8 69.8-1.3 2.9-2.4 5.4-2.4 5.7 0 .2-1.3 3.2-2.9 6.7-1.6 3.5-9.3 20.9-17.1 38.8-7.8 17.9-15.2 34.7-16.5 37.5-1.2 2.7-3.7 8.4-5.5 12.5-1.8 4.1-4.5 10.3-6.1 13.8-1.6 3.5-2.9 6.5-2.9 6.7 0 .2-1.6 3.9-3.6 8.2-2 4.3-4 8.9-4.6 10.3-.6 1.4-1.7 3.8-2.4 5.5-.8 1.6-6.8 15.4-13.5 30.5-10.9 24.9-13.2 30.1-16 36.5-4.6 10.6-8 17.7-8.3 17.4-.2-.2-3.6-7.8-7.6-16.9-8-18.2-15.2-34.7-23.4-53.3-3-6.7-12.2-27.7-20.6-46.7-8.4-19-16-36.3-17-38.5-1-2.2-3.2-7.4-5-11.5-1.8-4.1-4.5-10.3-6.1-13.8-1.6-3.5-2.9-6.5-2.9-6.7 0-.2-1.3-3.2-2.9-6.7-1.6-3.5-6.8-15.3-11.6-26.3s-11.3-25.9-14.5-33c-3.2-7.2-9-20.4-13-29.5-3.9-9.1-8.5-19.3-10.1-22.8-1.6-3.5-2.9-6.5-2.9-6.8 0-.2-.9-2.3-2-4.7-5.6-12.2-17-38.2-17-38.9 0-.4 52.8-.9 117.3-1 118.4-.3 196.7 0 196.7.6zm215.4-.4h4.8l-9.8 10.7c-5.4 6-12.2 13.3-15 16.3-2.8 3-8 8.6-11.5 12.5-3.4 3.8-6.5 7.2-6.9 7.5-.5.5-3.9 4.2-21 22.9-5.2 5.7-10.6 11.6-12 13.1-16.9 18.4-21.4 23.3-26.6 28.9-6 6.6-16 17.6-17.9 19.7-.5.6-5.5 6-11.1 12-5.5 6-12 13.1-14.5 15.8-2.4 2.7-6.2 6.8-8.4 9.1s-7.2 7.7-11.2 12.1c-9.4 10.4-10.9 12.1-22.2 24.3-5.3 5.7-10.4 11.3-11.3 12.3-.9 1.1-5.9 6.5-11.1 12.1-5.2 5.6-10.5 11.4-11.8 12.8-5.3 5.9-19.6 21.4-22.4 24.4-1.6 1.8-6.8 7.4-11.5 12.6-4.7 5.1-11 11.9-14 15.2-3 3.3-6.6 7.2-8 8.7-35.2 38.5-41.5 45.2-40.2 42.5.5-1.1 8.5-18.7 17.7-39 9.2-20.4 18.3-40.4 20.2-44.5 1.9-4.1 5.2-11.3 7.3-16 2.1-4.7 5.4-12 7.4-16.3 2-4.3 3.6-8 3.6-8.2 0-.2 2.3-5.1 5-11 2.8-5.9 5-10.8 5-11 0-.1 2.1-4.7 4.6-10.1 2.5-5.5 5.1-11.3 5.9-12.9.7-1.7 11.5-25.5 24-53s24.4-53.8 26.5-58.5c2.1-4.7 5.8-12.9 8.4-18.3 2.5-5.5 4.6-10.1 4.6-10.3 0-.2 1.7-4.1 3.9-8.6 2.1-4.6 5.7-12.7 8.1-18l4.3-9.8 27.6-.2c15.2-.2 49.4-.2 76.1-.1 26.7.2 50.7.3 53.4.3zm-583 11.3c2.8 6.2 6.7 14.8 8.7 19.2 2 4.4 6.9 15.2 10.9 24s9 19.8 11.1 24.3c2.2 4.6 3.9 8.6 3.9 8.7 0 .2 1.7 4.1 3.9 8.7 2.1 4.6 10.6 23.1 18.9 41.3 8.2 18.1 16.1 35.5 17.5 38.5C407 701.7 457 812.2 457 812.8c0 .4-2.3-1.8-5.1-4.8-6.4-6.8-27.9-29.6-35.7-37.7-3.1-3.2-12.9-13.5-21.7-22.8-17.7-18.6-16.9-17.8-38-40-8.2-8.6-17-17.8-19.5-20.4-2.5-2.6-11.5-12.1-20-21.1-17.1-18-16.8-17.7-39.1-41.1-8.6-9-17.5-18.4-19.8-20.7-2.2-2.4-10.7-11.4-18.8-19.9-8.1-8.6-16.4-17.3-18.3-19.3-1.9-2-10.9-11.5-20-21s-18.1-19-20-21c-3.8-4-29.1-30.6-38.5-40.5-3.1-3.3-8.2-8.6-11.3-11.8l-5.6-5.7h86.9l87 .1 4.9 11.2z"/></svg>