<?xml version="1.0" encoding="UTF-8" standalone="no"?>
<!-- Created with Inkscape (http://www.inkscape.org/) -->

<svg
   xmlns:dc="http://purl.org/dc/elements/1.1/"
   xmlns:cc="http://creativecommons.org/ns#"
   xmlns:rdf="http://www.w3.org/1999/02/22-rdf-syntax-ns#"
   xmlns:svg="http://www.w3.org/2000/svg"
   xmlns="http://www.w3.org/2000/svg"
   xmlns:sodipodi="http://sodipodi.sourceforge.net/DTD/sodipodi-0.dtd"
   xmlns:inkscape="http://www.inkscape.org/namespaces/inkscape"
   width="100"
   height="78.300003"
   id="svg3879"
   version="1.1"
   inkscape:version="0.48.4 r9939"
   sodipodi:docname="icon-ruby.svg">
  <defs
     id="defs3881" />
  <sodipodi:namedview
     id="base"
     pagecolor="#ffffff"
     bordercolor="#666666"
     borderopacity="1.0"
     inkscape:pageopacity="0.0"
     inkscape:pageshadow="2"
     inkscape:zoom="2.8"
     inkscape:cx="18.853599"
     inkscape:cy="43.810412"
     inkscape:document-units="px"
     inkscape:current-layer="layer1"
     showgrid="false"
     inkscape:window-width="1920"
     inkscape:window-height="1025"
     inkscape:window-x="0"
     inkscape:window-y="0"
     inkscape:window-maximized="1" />
  <metadata
     id="metadata3884">
    <rdf:RDF>
      <cc:Work
         rdf:about="">
        <dc:format>image/svg+xml</dc:format>
        <dc:type
           rdf:resource="http://purl.org/dc/dcmitype/StillImage" />
        <dc:title></dc:title>
      </cc:Work>
    </rdf:RDF>
  </metadata>
  <g
     inkscape:label="Layer 1"
     inkscape:groupmode="layer"
     id="layer1"
     transform="translate(0,-974.06218)">
    <path
       style="fill:#ff2323;fill-opacity:1;stroke:#ff2323;stroke-width:1.06795013000000005;stroke-linejoin:round;stroke-miterlimit:10;stroke-opacity:1"
       inkscape:connector-curvature="0"
       id="path3057"
       stroke-miterlimit="10"
       d="m 6.6326751,1000.3292 39.3009199,41.335 -18.79699,-41.335 H 6.6326751 z m 25.6859799,0 17.99425,40.9039 17.99425,-40.9039 h -35.9885 z m 60.37158,0 h -19.20103 l -18.74609,41.335 37.94712,-41.335 z m -58.13493,-4.74315 h 32.27238 l -16.13601,-16.85404 -16.13637,16.85404 z m 43.88705,-18.29577 h -23.50202 l 16.10255,16.8195 7.39947,-16.8195 z m -56.2589,0 7.63762,17.36167 16.62265,-17.36167 h -24.26027 z m 70.55626,18.29577 -10.34061,-15.51055 -6.82313,15.51055 h 17.16374 z m -84.6062099,0 H 25.049835 l -6.67077,-15.16418 -10.2455599,15.16418 z m 9.3409999,-21.00623 h 65.72877 l 16.26274,24.39412 -49.46602,52.85426 L 0.53397506,999.65173 17.474505,974.57982 z"
       inkscape:export-filename="/home/gambala/git/ruby_courses/app/assets/images/icon-ruby.png"
       inkscape:export-xdpi="180.43657"
       inkscape:export-ydpi="180.43657" />
  </g>
</svg>
